<!DOCTYPE svg PUBLIC "-//W3C//DTD SVG 20010904//EN" "http://www.w3.org/TR/2001/REC-SVG-20010904/DTD/svg10.dtd">
<svg version="1.0" xmlns="http://www.w3.org/2000/svg" width="100px" height="100px" viewBox="0 0 1000 1000" preserveAspectRatio="xMidYMid meet">
<g id="layer101" fill="#ffffff" stroke="none">
 <path d="M350 981 c-89 -29 -141 -60 -206 -125 -100 -100 -144 -209 -144 -356 0 -147 44 -256 144 -356 100 -100 209 -144 356 -144 147 0 256 44 356 144 100 100 144 209 144 356 0 147 -44 256 -144 356 -101 101 -210 144 -360 143 -59 0 -111 -6 -146 -18z m280 -38 c239 -64 385 -328 315 -570 -88 -306 -459 -435 -713 -248 -211 155 -257 445 -103 649 123 161 304 223 501 169z"/>
 <path d="M350 495 c0 -221 0 -225 21 -225 11 0 94 46 185 102 131 81 164 106 164 123 0 17 -33 43 -163 123 -90 56 -174 102 -185 102 -22 0 -22 -1 -22 -225z m185 83 c75 -45 132 -85 128 -88 -12 -10 -263 -160 -269 -160 -2 0 -4 74 -4 165 0 91 2 165 5 165 3 0 66 -37 140 -82z"/>
 </g>

</svg>